OpenSim_Sub08_EMGStiffKnee_GRF.mot
version=1
nRows=70
nColumns=19
inDegrees=no
endheader
time	lFx	lFy	lFz	lCOPx	lCOPy	lCOPz	rFx	rFy	rFz	rCOPx	rCOPy	rCOPz	lMx	lMy	lMz	rMx	rMy	rMz
15.75000000	2.20583346	-0.05088523	-1.56980887	-0.00000221	0	0.00000119	-48.39571782	533.27070645	-54.35652479	0.80371007	0	-0.40241489	0	0.00000382	0	0	-2.75247524	0
15.76000000	2.22385823	0.03292236	-1.62905040	0.00000054	0	-0.00000082	-46.93145507	532.25931409	-53.32846686	0.79862767	0	-0.40192542	0	-0.00000224	0	0	-2.88131978	0.00000000
15.77000000	2.22683658	0.06072678	-1.67851224	0.00000101	0	-0.00000098	-44.93924670	529.88122428	-51.31657245	0.79332137	0	-0.40149565	0	-0.00000281	0	0	-2.93733714	-0.00000000
15.78000000	2.22455976	-0.01677839	-1.75964889	0.00000068	0	-0.00000057	-42.55904724	526.41971333	-49.12374285	0.78797865	0	-0.40098181	0	-0.00000168	0	0	-2.84564904	0.00000000
15.79000000	2.22926545	-0.14639515	-1.89920730	0.00000028	0	-0.00000020	-40.17224846	522.17779555	-47.23057537	0.78280153	0	-0.40026908	0	-0.00000061	0	0	-2.65034031	-0.00000000
15.80000000	2.24500755	-0.33262065	-2.08487114	0.00000005	0	-0.00000001	-38.10952049	517.31462295	-45.89393554	0.77774266	0	-0.39935795	0	-0.00000005	0	0	-2.37586156	0
15.81000000	2.26247086	-0.46342964	-2.23360919	-0.00000004	0	0.00000004	-36.40625765	512.04720209	-45.18047384	0.77267501	0	-0.39834686	0	0.00000012	0	0	-2.01689512	0
15.82000000	2.27505537	-0.45128629	-2.30249743	-0.00000004	0	0.00000004	-34.98592756	506.92427387	-44.91785277	0.76763656	0	-0.39727972	0	0.00000011	0	0	-1.65560921	-0.00000000
15.83000000	2.27785073	-0.32329854	-2.37286255	-0.00000002	0	0.00000002	-33.86211589	502.48971087	-45.00583600	0.76286187	0	-0.39618067	0	0.00000005	0	0	-1.33355378	0.00000000
15.84000000	2.26684279	-0.20289035	-2.43407998	-0.00000001	0	0.00000000	-32.98918425	498.95923692	-45.26518358	0.75857220	0	-0.39507107	0	0.00000001	0	0	-1.04330197	0
15.85000000	2.25654898	-0.14557440	-2.48444054	0.00000000	0	-0.00000000	-32.33776864	496.13318527	-45.39383019	0.75470980	0	-0.39397824	0	-0.00000001	0	0	-0.81572249	0
15.86000000	2.24866732	-0.08568581	-2.53929332	0.00000001	0	-0.00000000	-31.63101534	493.60303256	-45.23738687	0.75061798	0	-0.39301834	0	-0.00000000	0	0	-0.66480944	0
15.87000000	2.22553695	-0.00833039	-2.59136009	-0.00000000	0	0.00000000	-30.65627436	491.38156656	-44.77058890	0.74601348	0	-0.39223983	0	0.00000003	0	0	-0.50805333	-0.00000000
15.88000000	2.15988226	-0.03317160	-2.61577921	-0.00000003	0	0.00000002	-29.38337715	489.60607256	-44.02187680	0.74093535	0	-0.39159495	0	0.00000010	0	0	-0.32403597	-0.00000000
15.89000000	2.06009693	-0.09492047	-2.61157358	-0.00000007	0	0.00000005	-27.74650253	488.21554267	-43.19719777	0.73555525	0	-0.39106943	0	0.00000016	0	0	-0.13800268	-0.00000000
15.90000000	1.96483994	-0.09409011	-2.61896488	-0.00000010	0	0.00000008	-25.59689831	487.14676310	-42.43447058	0.72966598	0	-0.39074574	0	0.00000012	0	0	0.09859628	0
15.91000000	1.88779555	-0.04266608	-2.61132723	-0.00000005	0	0.00000003	-22.92070923	486.58248318	-41.68842474	0.72328186	0	-0.39063793	0	-0.00000024	0	0	0.40569477	-0.00000000
15.92000000	1.83761237	0.04821804	-2.59020279	0.00000025	0	-0.00000018	-19.93067466	486.66069391	-40.98821111	0.71657446	0	-0.39071807	0	-0.00000119	0	0	0.68748463	0
15.93000000	1.81076196	0.12524608	-2.56355847	0.00000093	0	-0.00000068	-16.86774412	487.45891827	-40.32789142	0.70960379	0	-0.39094409	0	-0.00000274	0	0	0.91546923	-0.00000000
15.94000000	1.78866258	0.13844093	-2.57614402	0.00000190	0	-0.00000140	-13.88886501	489.10158335	-39.63034739	0.70236534	0	-0.39126932	0	-0.00000387	0	0	1.16079182	0
15.95000000	1.75602699	0.12423317	-2.62507114	0.00000230	0	-0.00000170	-10.96112869	491.68556599	-38.81281086	0.69508837	0	-0.39164438	0	-0.00000145	0	0	1.39074213	0
15.96000000	1.70768273	0.05140381	-2.68839575	-0.00000018	0	0.00000010	-7.99295351	494.91804848	-37.95306026	0.68796706	0	-0.39203235	0	0.00001026	0	0	1.56429123	0
15.97000000	1.63176446	-0.01076287	-2.71229453	-0.00000928	0	0.00000675	-4.82954920	498.32552144	-37.25362411	0.68087383	0	-0.39242943	0	0.00003686	0	0	1.73554378	-0.00000000
15.98000000	1.56506961	-0.03268561	-2.69229337	-0.00002768	0	0.00002029	-1.40289026	501.77131493	-36.90328409	0.67367702	0	-0.39284684	0	0.00007385	0	0	1.94289424	0
15.99000000	1.55144528	-0.06776816	-2.68030584	-0.00004948	0	0.00003645	2.26895160	505.40405468	-37.01415164	0.66621588	0	-0.39329446	0	0.00008615	0	0	2.18570521	0
16	1.57064190	-0.10289322	-2.65544690	-0.00004641	0	0.00003456	5.92720901	509.52140122	-37.56295212	0.65854391	0	-0.39372286	0	-0.00001653	0	0	2.47395723	0
16.01000000	1.56685284	-0.11498580	-2.60984390	0.00004566	0	-0.00003250	9.13789804	514.26505888	-38.36642405	0.65093110	0	-0.39405578	0	-0.00037723	0	0	2.75334288	-0.00000000
16.02000000	1.53588041	-0.09122557	-2.59909734	0.00031565	0	-0.00023045	11.62990980	519.12089558	-39.23279630	0.64367901	0	-0.39426045	0	-0.00109120	0	0	2.97111757	0.00000000
16.03000000	1.50803168	-0.01902478	-2.58777447	0.00079240	0	-0.00058167	13.53819233	523.08222532	-40.07831868	0.63674837	0	-0.39439877	0	-0.00190742	0	0	3.14757528	0
16.04000000	1.51887572	0.06645055	-2.56752718	0.00122694	0	-0.00090543	15.26918600	525.46881265	-40.93560648	0.63019609	0	-0.39448488	0	-0.00169684	0	0	3.27167089	-0.00000000
16.05000000	1.55546480	0.04591653	-2.58644544	0.00074836	0	-0.00056395	17.19412972	526.06779737	-41.84135673	0.62409294	0	-0.39451632	0	0.00204233	0	0	3.33724233	0.00000000
16.06000000	1.59390103	-0.13385026	-2.62613936	-0.00236328	0	0.00170823	19.45837588	525.12335349	-42.75337214	0.61831136	0	-0.39450596	0	0.01268143	0	0	3.40022307	0
16.07000000	1.59176816	-0.52987234	-2.66491980	-0.01006666	0	0.00736370	21.93747390	523.17425793	-43.62817477	0.61260153	0	-0.39446042	0	0.03104646	0	0	3.48315576	0
16.08000000	1.40090848	-1.14473546	-2.64016209	-0.02183124	0	0.01604712	24.48608514	520.82180696	-44.35822147	0.60674094	0	-0.39440630	0	0.04688039	0	0	3.54270811	0
16.09000000	0.77993960	-1.40824389	-2.52638597	-0.02860719	0	0.02116369	26.96390035	518.94572255	-44.88018835	0.60097453	0	-0.39436564	0	0.02567620	0	0	3.57941846	0
16.10000000	-0.33961563	0.18287469	-2.25051629	-0.00472401	0	0.00388803	29.22897352	518.32053422	-45.14060354	0.59570799	0	-0.39432481	0	-0.09922490	0	0	3.58770333	0
16.11000000	-1.41536720	6.24868415	-1.79685682	0.09402497	0	-0.06835722	31.20675978	519.08177733	-45.06220194	0.59099700	0	-0.39416955	0	-0.40087645	0	0	3.48362072	0
16.12000000	-0.91376050	19.65616325	-1.40291996	0.30552236	0	-0.22383832	32.95800664	520.54165703	-44.92505378	0.58655671	0	-0.39383965	0	-0.84997703	0	0	3.30478519	0
16.13000000	1.90131759	42.59581675	-1.16170735	0.58124856	0	-0.42771168	34.54841065	521.93515318	-45.05445404	0.58238525	0	-0.39333800	0	-1.09556258	0	0	3.13319452	0.00000000
16.14000000	4.34280953	74.47310446	-0.31018700	0.77844745	0	-0.57530244	35.98640901	522.68916804	-45.56294185	0.57860835	0	-0.39274762	0	-0.86841180	0	0	2.94735366	0.00000000
16.15000000	2.88111136	112.97875898	1.95227281	0.86277648	0	-0.64134531	37.19384661	522.57756610	-46.54162194	0.57532650	0	-0.39212177	0	-0.52324927	0	0	2.74062445	0
16.16000000	-2.91868086	155.95484311	5.30149526	0.87951847	0	-0.65618233	38.12076240	521.71180545	-47.95023887	0.57228849	0	-0.39145471	0	-0.21613755	0	0	2.56399163	0
16.17000000	-11.32331612	200.80913704	9.08458047	0.87244014	0	-0.65112644	38.87710240	520.55610437	-49.45686311	0.56948497	0	-0.39070633	0	0.06936942	0	0	2.39952960	0
16.18000000	-20.33546132	243.73966392	13.21922000	0.86253742	0	-0.64358319	39.48461215	519.58637896	-50.78926899	0.56692643	0	-0.38991285	0	0.22758887	0	0	2.25383874	0.00000000
16.19000000	-28.21394495	280.11540180	17.95004122	0.85543435	0	-0.63927722	40.13018638	519.11459232	-51.74543820	0.56424279	0	-0.38916998	0	0.03105923	0	0	2.18621697	0
16.20000000	-34.21312328	306.93278210	23.22980875	0.85039745	0	-0.63827581	41.11582770	519.17808392	-52.10170354	0.56092004	0	-0.38852448	0	-0.59785802	0	0	2.19018600	0
16.21000000	-38.47097652	325.45477658	28.61432698	0.84585992	0	-0.63918303	42.83684864	519.43951279	-51.75869791	0.55662740	0	-0.38804185	0	-1.39982811	0	0	2.23244004	0
16.22000000	-41.38293795	340.62617647	33.65648042	0.84135143	0	-0.64080517	45.44844741	519.43585677	-50.85750449	0.55163885	0	-0.38777175	0	-2.12353652	0	0	2.31860925	0
16.23000000	-43.61774541	357.76175289	38.23641397	0.83706128	0	-0.64244568	48.80981669	518.06705141	-49.58837125	0.54627942	0	-0.38771266	0	-2.68168327	0	0	2.37687892	0
16.24000000	-45.74131832	379.45137451	42.27543627	0.83324224	0	-0.64376607	52.61534788	513.92001179	-48.13120552	0.54067561	0	-0.38776727	0	-3.00627555	0	0	2.37641651	0
16.25000000	-47.61095408	403.94314002	45.22422958	0.82986145	0	-0.64468807	56.60073958	505.99242226	-46.57138689	0.53481421	0	-0.38786147	0	-2.98724637	0	0	2.39169730	0
16.26000000	-48.47711417	427.71321657	46.56429569	0.82632816	0	-0.64527490	60.42357813	493.79919888	-44.75365164	0.52876336	0	-0.38788444	0	-2.53617517	0	0	2.38067786	0
16.27000000	-48.30476074	449.18631482	46.83544449	0.82211880	0	-0.64565602	63.66267807	476.93190677	-42.58199990	0.52281480	0	-0.38777471	0	-1.90435839	0	0	2.31346218	0.00000000
16.28000000	-46.95092721	468.19085699	46.44720623	0.81714388	0	-0.64598437	65.87216394	454.86922711	-40.03274808	0.51698586	0	-0.38755038	0	-1.19664022	0	0	2.22889719	0.00000000
16.29000000	-44.61601991	484.52322895	45.92315936	0.81201097	0	-0.64637080	66.60777762	426.98488660	-36.95014280	0.51113604	0	-0.38721829	0	-0.52364514	0	0	2.12120251	0.00000000
16.30000000	-41.83586030	497.15327444	45.76222293	0.80674620	0	-0.64688038	65.58500923	392.66697043	-33.17178847	0.50514812	0	-0.38680777	0	-0.03499719	0	0	1.96081135	0.00000000
16.31000000	-38.86500885	504.85318727	46.08370417	0.80116125	0	-0.64759574	62.53786768	352.09213104	-28.88735144	0.49943271	0	-0.38651287	0	0.19947059	0	0	1.80975483	0
16.32000000	-35.70091732	507.28463472	46.84409881	0.79527218	0	-0.64846811	57.32437296	306.43215587	-24.38552644	0.49479939	0	-0.38686374	0	0.11313761	0	0	1.65792650	-0.00000000
16.33000000	-32.40578224	505.77269478	47.79402062	0.78932532	0	-0.64939384	50.01575004	257.44217096	-20.04011779	0.49182153	0	-0.38869609	0	-0.21442011	0	0	1.44370568	-0.00000000
16.34000000	-29.20010315	502.46308885	48.48769229	0.78349618	0	-0.65022895	40.90024567	207.22135665	-16.55043975	0.49100838	0	-0.39248815	0	-0.51817630	0	0	1.26878411	-0.00000000
16.35000000	-26.40176545	499.32251242	48.63663574	0.77814707	0	-0.65083759	30.40344858	158.36489046	-14.26881720	0.49164703	0	-0.39631099	0	-0.62289638	0	0	1.05952585	0
16.36000000	-24.09639689	497.50153349	48.10710760	0.77309723	0	-0.65118293	19.31464786	113.72357405	-13.24537256	0.48642785	0	-0.39283212	0	-0.50874036	0	0	0.71956097	0.00000000
16.37000000	-21.73315746	497.05636272	46.84287141	0.76759041	0	-0.65131820	8.75571041	76.09862185	-13.19973149	0.45689764	0	-0.36631829	0	-0.16041317	0	0	0.29935989	0
16.38000000	-19.09579146	497.43658929	45.11074929	0.76168690	0	-0.65132839	0.21960734	47.23985985	-13.26158834	0.37658722	0	-0.29641382	0	0.33647265	0	0	-0.13596219	0
16.39000000	-16.37285616	497.78388879	43.14299386	0.75559710	0	-0.65124008	-4.84411743	26.86950784	-12.18937406	0.23821460	0	-0.18052830	0	0.91393328	0	0	-0.44485556	-0.00000000
16.40000000	-13.80675610	497.52304895	41.09142288	0.74954702	0	-0.65106289	-5.69003564	13.01725968	-8.89125631	0.09723895	0	-0.07011105	0	1.53808369	0	0	-0.34731367	-0.00000000
16.41000000	-11.51205068	496.18772891	39.18221236	0.74338414	0	-0.65080137	-3.58417826	4.17189834	-3.93800596	0.01561916	0	-0.00894854	0	2.12782091	0	0	-0.16285566	0.00000000
16.42000000	-9.64579300	493.63132516	37.68590114	0.73748273	0	-0.65056279	-1.31613544	-0.10767579	-0.42803989	-0.01304421	0	0.01127111	0	2.51949948	0	0	-0.03977958	-0.00000000
16.43000000	-8.32890459	489.99730662	36.70156789	0.73201528	0	-0.65048445	-0.00042282	-1.27375807	0.36979432	-0.01464170	0	0.01145218	0	2.63292747	0	0	0.01085883	-0.00000000
16.44000000	-7.47315902	485.71937214	36.17424473	0.72688285	0	-0.65059279	0.44274859	-1.01339400	0.55322483	-0.00837124	0	0.00626590	0	2.50703382	0	0	0.01925040	0.00000000
